<svg width="12" height="12" viewBox="0 0 12 12" fill="none" xmlns="http://www.w3.org/2000/svg">
<g clip-path="url(#clip0_187_282)">
<path fill-rule="evenodd" clip-rule="evenodd" d="M8.7075 7.19102C8.5585 7.11652 7.828 6.75752 7.692 6.70752C7.556 6.65802 7.457 6.63352 7.3575 6.78252C7.2585 6.93052 6.974 7.26552 6.8875 7.36452C6.8005 7.46402 6.714 7.47602 6.5655 7.40202C6.417 7.32702 5.938 7.17052 5.3705 6.66452C4.929 6.27052 4.6305 5.78402 4.544 5.63502C4.4575 5.48652 4.5345 5.40602 4.609 5.33202C4.676 5.26552 4.7575 5.15852 4.832 5.07202C4.9065 4.98502 4.931 4.92302 4.9805 4.82352C5.0305 4.72452 5.0055 4.63802 4.968 4.56352C4.931 4.48902 4.634 3.75752 4.51 3.46002C4.3895 3.17052 4.267 3.21002 4.176 3.20502C4.089 3.20102 3.99 3.20002 3.891 3.20002C3.792 3.20002 3.631 3.23702 3.495 3.38602C3.3585 3.53452 2.975 3.89402 2.975 4.62552C2.975 5.35652 3.507 6.06302 3.5815 6.16252C3.656 6.26152 4.629 7.76252 6.1195 8.40602C6.4745 8.55902 6.751 8.65052 6.9665 8.71852C7.3225 8.83202 7.6465 8.81602 7.9025 8.77752C8.1875 8.73502 8.7815 8.41802 8.9055 8.07102C9.029 7.72402 9.029 7.42652 8.992 7.36452C8.955 7.30252 8.856 7.26552 8.707 7.19102H8.7075ZM5.9965 10.8925H5.9945C5.10922 10.8927 4.24019 10.6547 3.4785 10.2035L3.2985 10.0965L1.4275 10.5875L1.927 8.76352L1.8095 8.57652C1.31457 7.78869 1.05265 6.87691 1.054 5.94652C1.055 3.22152 3.272 1.00452 5.9985 1.00452C7.3185 1.00452 8.5595 1.51952 9.4925 2.45352C9.95269 2.91181 10.3174 3.4568 10.5656 4.05697C10.8138 4.65713 10.9406 5.30056 10.9385 5.95002C10.9375 8.67502 8.7205 10.8925 5.9965 10.8925ZM10.2025 1.74402C9.6516 1.18948 8.99612 0.749789 8.27404 0.450421C7.55197 0.151052 6.77767 -0.00203812 5.996 2.04888e-05C2.719 2.04888e-05 0.051 2.66752 0.05 5.94602C0.0484815 6.9894 0.322187 8.01471 0.8435 8.91852L0 12L3.152 11.173C4.02394 11.6481 5.00105 11.897 5.994 11.897H5.9965C9.2735 11.897 11.9415 9.22952 11.9425 5.95052C11.9449 5.16916 11.7924 4.39507 11.4937 3.67304C11.195 2.951 10.7562 2.29536 10.2025 1.74402Z" fill="white"/>
</g>
<defs>
<clipPath id="clip0_187_282">
<rect width="12" height="12" fill="white"/>
</clipPath>
</defs>
</svg>
