<svg width="36" height="36" viewBox="0 0 36 36" fill="none" xmlns="http://www.w3.org/2000/svg">
<path d="M30.2098 15.9715L30.2168 15.968C30.3258 16.6324 30.3785 17.3109 30.3785 17.9824C30.3785 18.5836 30.3328 19.1883 30.2484 19.7789C30.3328 19.1918 30.375 18.5977 30.375 18.0035C30.375 17.3215 30.3188 16.6395 30.2098 15.9715ZM3.48047 22.0043C3.46289 22.0184 3.44883 22.0324 3.43125 22.05C3.45586 22.0254 3.48047 22.0008 3.5086 21.9762L5.81133 20.0109V20.0145L3.48047 22.0043ZM22.3453 29.598H22.3488L21.8039 32.5441C21.7969 32.5793 21.7898 32.6109 21.7793 32.6426C21.7828 32.625 21.7898 32.6039 21.7934 32.5863L22.3453 29.598ZM24.2438 10.3852L25.3477 11.2922L28.6102 10.1355C29.2078 10.9406 29.7106 11.8055 30.1078 12.723L27.4816 14.9695L27.7137 16.3793C27.8016 16.9102 27.8473 17.4551 27.8473 18C27.8473 18.5449 27.8016 19.0898 27.7137 19.6207L27.4852 21.0234L30.1113 23.2699C29.7105 24.184 29.2113 25.0523 28.6137 25.8574L25.3512 24.7008L24.2473 25.6078C23.407 26.2969 22.4684 26.8383 21.4594 27.218L20.1199 27.7207L19.4906 31.1309C18.4977 31.2434 17.4953 31.2434 16.5023 31.1309L15.873 27.7137L14.5406 27.2109C13.5387 26.8313 12.607 26.2898 11.7738 25.6043L10.6699 24.6938L7.38633 25.8609C6.78867 25.0559 6.28594 24.191 5.88867 23.2734L8.54297 21.0059L8.31445 19.5996C8.22656 19.0758 8.18438 18.5379 8.18438 18C8.18438 17.4656 8.23008 16.9242 8.31445 16.4004L8.54297 14.9941L5.88867 12.7266C6.28945 11.8125 6.78867 10.9441 7.38633 10.1391L10.6699 11.3063L11.7738 10.3957C12.607 9.71016 13.5387 9.16875 14.5406 8.78906L15.8695 8.2793L16.4988 4.86211C17.4902 4.74961 18.4992 4.74961 19.4871 4.86211L20.1164 8.27227L21.4559 8.775C22.4684 9.15469 23.4035 9.6961 24.2438 10.3852ZM18.0176 12.1535C16.9453 12.1535 15.9363 12.4277 15.0539 12.9094C13.1238 13.957 11.8125 15.9996 11.8125 18.3516C11.8125 21.7688 14.5828 24.5391 18 24.5391C20.352 24.5391 22.3945 23.2277 23.4422 21.2977C23.9238 20.4188 24.198 19.4098 24.198 18.334C24.198 14.9203 21.4313 12.1535 18.0176 12.1535ZM7.28438 7.425C7.09102 7.35821 6.89063 7.34414 6.70078 7.38281C6.90117 7.34063 7.11211 7.34766 7.31602 7.41797L10.1777 8.4375C10.1742 8.44102 10.1672 8.44453 10.1637 8.44805L7.28438 7.425ZM32.5125 22.0043L30.2098 20.0355C30.2098 20.0285 30.2133 20.018 30.2133 20.0109L32.5125 21.9762C32.7621 22.1906 32.9027 22.5 32.9063 22.8199C32.8957 22.5105 32.7551 22.2117 32.5125 22.0043Z" fill="black" fill-opacity="0.15"/>
<path d="M32.8992 13.2679C32.9168 13.1027 32.8992 12.934 32.8395 12.7722L32.8078 12.6808C32.1723 10.9098 31.2232 9.2676 30.0059 7.83279L29.9426 7.75896C29.7951 7.58463 29.5981 7.45932 29.3776 7.39966C29.1572 7.34 28.9239 7.34883 28.7086 7.42497L25.8504 8.44099C24.8018 7.57712 23.6175 6.89286 22.3453 6.41599L21.7934 3.42771C21.7517 3.20286 21.6426 2.996 21.4806 2.83461C21.3186 2.67323 21.1113 2.56496 20.8863 2.52419L20.7914 2.50661C19.8726 2.34052 18.9407 2.25699 18.007 2.25701H18.0176C18.9563 2.25701 19.8949 2.34138 20.809 2.50661L20.9039 2.52419C21.1289 2.56496 21.3362 2.67323 21.4982 2.83461C21.6602 2.996 21.7693 3.20286 21.8109 3.42771L22.3629 6.41247C23.6355 6.8906 24.8098 7.56912 25.8645 8.43396L28.7191 7.41794C28.9344 7.3418 29.1678 7.33297 29.3882 7.39263C29.6086 7.45229 29.8056 7.5776 29.9531 7.75193L30.0164 7.82575C31.2398 9.27068 32.1785 10.8984 32.8148 12.6668L32.8465 12.7582C32.9027 12.9234 32.9203 13.0992 32.8992 13.2679Z" fill="black" fill-opacity="0.15"/>
<path d="M24.1875 18.3516C24.1875 19.4168 23.9168 20.4223 23.4422 21.2977C22.3945 23.2277 20.352 24.5391 18 24.5391C14.5828 24.5391 11.8125 21.7687 11.8125 18.3516C11.8125 15.9996 13.1238 13.957 15.0539 12.9094C15.9293 12.4348 16.9313 12.1641 18 12.1641C21.4172 12.1641 24.1875 14.9344 24.1875 18.3516ZM14.0625 18.3516C14.0625 19.4027 14.4738 20.3906 15.2156 21.1359C15.9609 21.8813 16.9488 22.2891 18 22.2891C19.0512 22.2891 20.0391 21.8813 20.7844 21.1359C21.1506 20.7707 21.441 20.3367 21.6389 19.8589C21.8368 19.381 21.9383 18.8688 21.9375 18.3516C21.9375 17.3004 21.5262 16.3125 20.7844 15.5672C20.4192 15.2009 19.9852 14.9105 19.5073 14.7126C19.0295 14.5147 18.5172 14.4133 18 14.4141C16.9488 14.4141 15.9609 14.8254 15.2156 15.5672C14.8494 15.9324 14.559 16.3664 14.3611 16.8442C14.1632 17.3221 14.0617 17.8344 14.0625 18.3516Z" fill="white"/>
<path d="M20.8863 2.52419C21.1113 2.56496 21.3186 2.67323 21.4806 2.83461C21.6426 2.996 21.7517 3.20286 21.7934 3.42771L22.3453 6.41599C23.6174 6.89286 24.8018 7.57712 25.8504 8.44099L28.7086 7.42497C28.9239 7.34883 29.1572 7.34001 29.3776 7.39966C29.598 7.45932 29.7951 7.58463 29.9426 7.75896L30.0059 7.83279C31.2293 9.27771 32.1715 10.909 32.8078 12.6808L32.8394 12.7722C32.8992 12.934 32.9168 13.1027 32.8992 13.2679C32.8676 13.5457 32.734 13.8093 32.5125 14.0027L30.2168 15.9679L30.2098 15.9715C30.3187 16.6394 30.375 17.3215 30.375 18.0035C30.375 18.5976 30.3328 19.1953 30.2484 19.7789C30.2379 19.8562 30.2238 19.9336 30.2133 20.0109C30.2133 20.0179 30.2098 20.0285 30.2098 20.0355L32.5125 22.0043C32.7551 22.2117 32.8957 22.5105 32.9062 22.8199C32.9098 22.9605 32.8887 23.1047 32.8394 23.2418L32.8078 23.3332C32.1739 25.105 31.2246 26.7474 30.0059 28.1812L29.9426 28.2551C29.7947 28.4289 29.5977 28.5539 29.3774 28.6135C29.1571 28.6731 28.9239 28.6646 28.7086 28.589L25.8504 27.573C24.7957 28.4379 23.6215 29.1199 22.3488 29.598H22.3453L21.7934 32.5863C21.7898 32.6039 21.7863 32.625 21.7793 32.6426C21.7285 32.8551 21.6171 33.0483 21.4586 33.1988C21.3001 33.3492 21.1012 33.4503 20.8863 33.4898L20.7914 33.5074C18.9598 33.8379 17.0332 33.8379 15.2016 33.5074L15.1066 33.4898C14.8816 33.449 14.6743 33.3408 14.5123 33.1794C14.3503 33.018 14.2412 32.8112 14.1996 32.5863L13.6441 29.584C12.3816 29.1057 11.2059 28.4241 10.1637 27.566L7.28437 28.589C7.06909 28.6652 6.83574 28.674 6.61533 28.6144C6.39492 28.5547 6.19787 28.4294 6.05039 28.2551L5.98711 28.1812C4.76981 26.7464 3.82069 25.1042 3.18515 23.3332L3.15351 23.2418C3.08025 23.0375 3.06749 22.8163 3.11675 22.6049C3.16601 22.3936 3.27521 22.2009 3.43125 22.05C3.44882 22.0359 3.46289 22.0183 3.48047 22.0043L5.81132 20.0144V20.0109C5.70234 19.35 5.64961 18.6785 5.64961 18.007C5.64961 17.332 5.70234 16.657 5.81132 15.9996L3.48047 14.0097C3.30678 13.8611 3.18247 13.663 3.12407 13.442C3.06566 13.2209 3.07593 12.9873 3.15351 12.7722L3.18515 12.6808C3.82148 10.909 4.76367 9.27419 5.98711 7.83279L6.05039 7.75896C6.22265 7.55857 6.45117 7.42849 6.70078 7.38279C6.89062 7.34763 7.09101 7.35818 7.28437 7.42497L10.1637 8.44802C10.1672 8.44451 10.1742 8.44099 10.1777 8.43748C11.2219 7.58318 12.3855 6.90466 13.6441 6.43005L14.1996 3.42771C14.2412 3.20286 14.3503 2.996 14.5123 2.83461C14.6743 2.67323 14.8816 2.56496 15.1066 2.52419L15.2016 2.50661C16.1191 2.34138 17.0578 2.25701 17.9965 2.25701H18.007C18.9422 2.25701 19.8809 2.34138 20.7914 2.50661L20.8863 2.52419ZM19.4871 4.86208C18.4942 4.74958 17.4917 4.74958 16.4988 4.86208L15.8695 8.27927L14.5406 8.78904C13.5387 9.16872 12.607 9.71013 11.7738 10.3957L10.6699 11.3062L7.38632 10.139C6.78867 10.9441 6.28945 11.8125 5.88867 12.7265L8.54296 14.9941L8.31445 16.4004C8.23007 16.9242 8.18437 17.4656 8.18437 18C8.18437 18.5379 8.22656 19.0758 8.31445 19.5996L8.54296 21.0058L5.88867 23.2734C6.28593 24.191 6.78867 25.0558 7.38632 25.8609L10.6699 24.6937L11.7738 25.6043C12.607 26.2898 13.5387 26.8312 14.5406 27.2109L15.873 27.7136L16.5023 31.1308C17.4902 31.2433 18.4992 31.2433 19.4906 31.1308L20.1199 27.7207L21.4594 27.2179C22.4684 26.8383 23.407 26.2969 24.2473 25.6078L25.3512 24.7008L28.6137 25.8574C29.2113 25.0523 29.7105 24.184 30.1113 23.2699L27.4851 21.0234L27.7137 19.6207C27.8016 19.0898 27.8473 18.5449 27.8473 18C27.8473 17.4551 27.8016 16.9101 27.7137 16.3793L27.4816 14.9695L30.1078 12.723C29.7097 11.8058 29.2071 10.9376 28.6101 10.1355L25.3477 11.2922L24.2437 10.3851C23.4035 9.69607 22.4684 9.15466 21.4559 8.77497L20.1164 8.27224L19.4871 4.86208Z" fill="white"/>
</svg>
