<svg width="7" height="7" viewBox="0 0 7 7" fill="none" xmlns="http://www.w3.org/2000/svg">
<path d="M6.05596 3.64854C6.1708 3.49678 6.23438 3.31084 6.23438 3.11739C6.23438 2.81045 6.06279 2.51993 5.78662 2.35792C5.71552 2.31621 5.63457 2.29426 5.55215 2.29434H3.91289L3.95391 1.4542C3.96348 1.25118 3.8917 1.0584 3.75225 0.911431C3.68381 0.838989 3.60124 0.781352 3.50965 0.742081C3.41806 0.70281 3.31938 0.68274 3.21973 0.683111C2.86426 0.683111 2.5498 0.922368 2.45547 1.26485L1.86826 3.39083H1.86621V6.31661H5.09482C5.15771 6.31661 5.21924 6.3043 5.27598 6.27969C5.60137 6.14092 5.81123 5.82305 5.81123 5.47032C5.81123 5.38418 5.79893 5.29942 5.77432 5.21739C5.88916 5.06563 5.95273 4.87969 5.95273 4.68623C5.95273 4.6001 5.94043 4.51534 5.91582 4.43331C6.03066 4.28155 6.09424 4.09561 6.09424 3.90215C6.09287 3.81602 6.08057 3.73057 6.05596 3.64854ZM0.765625 3.60958V6.09786C0.765625 6.21885 0.863379 6.31661 0.984375 6.31661H1.42871V3.39083H0.984375C0.863379 3.39083 0.765625 3.48858 0.765625 3.60958Z" fill="#EBB700"/>
</svg>
