<svg width="19" height="18" viewBox="0 0 19 18" fill="none" xmlns="http://www.w3.org/2000/svg">
<g clip-path="url(#clip0_187_184)">
<path d="M2.375 0C1.74511 0 1.14102 0.237053 0.695621 0.65901C0.250223 1.08097 0 1.65326 0 2.25L0 15.75C0 16.3467 0.250223 16.919 0.695621 17.341C1.14102 17.7629 1.74511 18 2.375 18H16.625C17.2549 18 17.859 17.7629 18.3044 17.341C18.7498 16.919 19 16.3467 19 15.75V2.25C19 1.65326 18.7498 1.08097 18.3044 0.65901C17.859 0.237053 17.2549 0 16.625 0L2.375 0ZM10.0938 5.0625V11.5796L12.6421 9.16425C12.6973 9.11195 12.7629 9.07047 12.835 9.04216C12.9071 9.01386 12.9844 8.99929 13.0625 8.99929C13.1406 8.99929 13.2179 9.01386 13.29 9.04216C13.3621 9.07047 13.4277 9.11195 13.4829 9.16425C13.5381 9.21655 13.5819 9.27864 13.6117 9.34697C13.6416 9.4153 13.657 9.48854 13.657 9.5625C13.657 9.63646 13.6416 9.7097 13.6117 9.77803C13.5819 9.84636 13.5381 9.90845 13.4829 9.96075L9.92037 13.3358C9.86522 13.3881 9.7997 13.4297 9.72756 13.4581C9.65543 13.4864 9.5781 13.501 9.5 13.501C9.4219 13.501 9.34457 13.4864 9.27244 13.4581C9.2003 13.4297 9.13478 13.3881 9.07963 13.3358L5.51713 9.96075C5.46192 9.90845 5.41813 9.84636 5.38825 9.77803C5.35838 9.7097 5.343 9.63646 5.343 9.5625C5.343 9.48854 5.35838 9.4153 5.38825 9.34697C5.41813 9.27864 5.46192 9.21655 5.51713 9.16425C5.62862 9.05863 5.77983 8.99929 5.9375 8.99929C6.01557 8.99929 6.09288 9.01386 6.16501 9.04216C6.23713 9.07047 6.30267 9.11195 6.35787 9.16425L8.90625 11.5796V5.0625C8.90625 4.91332 8.96881 4.77024 9.08016 4.66475C9.19151 4.55926 9.34253 4.5 9.5 4.5C9.65747 4.5 9.8085 4.55926 9.91985 4.66475C10.0312 4.77024 10.0938 4.91332 10.0938 5.0625Z" fill="#007D19"/>
</g>
<defs>
<clipPath id="clip0_187_184">
<rect width="19" height="18" fill="white"/>
</clipPath>
</defs>
</svg>
