<svg width="93" height="15" viewBox="0 0 93 15" fill="none" xmlns="http://www.w3.org/2000/svg">
<path d="M13.3023 5.17237L9.58301 4.63184L7.92041 1.26124C7.875 1.16895 7.8003 1.09424 7.70801 1.04883C7.47657 0.934576 7.19532 1.02979 7.07959 1.26124L5.417 4.63184L1.69776 5.17237C1.59522 5.18702 1.50147 5.23536 1.42969 5.3086C1.34292 5.39779 1.2951 5.51778 1.29675 5.64221C1.2984 5.76663 1.34937 5.88531 1.43848 5.97217L4.1294 8.59571L3.49366 12.3003C3.47875 12.3865 3.48828 12.4751 3.52118 12.5561C3.55408 12.6372 3.60903 12.7074 3.67979 12.7588C3.75055 12.8102 3.8343 12.8407 3.92154 12.8469C4.00877 12.8531 4.09601 12.8348 4.17334 12.794L7.5 11.0449L10.8267 12.794C10.9175 12.8423 11.023 12.8584 11.124 12.8408C11.3789 12.7969 11.5503 12.5552 11.5064 12.3003L10.8706 8.59571L13.5615 5.97217C13.6348 5.9004 13.6831 5.80665 13.6978 5.70411C13.7373 5.44776 13.5586 5.21045 13.3023 5.17237Z" fill="#FFC700"/>
<path d="M33.3022 5.17237L29.583 4.63184L27.9204 1.26124C27.875 1.16895 27.8003 1.09424 27.708 1.04883C27.4766 0.934576 27.1953 1.02979 27.0796 1.26124L25.417 4.63184L21.6978 5.17237C21.5952 5.18702 21.5015 5.23536 21.4297 5.3086C21.3429 5.39779 21.2951 5.51778 21.2967 5.64221C21.2984 5.76663 21.3494 5.88531 21.4385 5.97217L24.1294 8.59571L23.4936 12.3003C23.4787 12.3865 23.4883 12.4751 23.5212 12.5561C23.5541 12.6372 23.609 12.7074 23.6798 12.7588C23.7505 12.8102 23.8343 12.8407 23.9215 12.8469C24.0088 12.8531 24.096 12.8348 24.1733 12.794L27.5 11.0449L30.8267 12.794C30.9175 12.8423 31.0229 12.8584 31.124 12.8408C31.3789 12.7969 31.5503 12.5552 31.5063 12.3003L30.8706 8.59571L33.5615 5.97217C33.6348 5.9004 33.6831 5.80665 33.6978 5.70411C33.7373 5.44776 33.5586 5.21045 33.3022 5.17237Z" fill="#FFC700"/>
<path d="M53.3022 5.17237L49.583 4.63184L47.9204 1.26124C47.875 1.16895 47.8003 1.09424 47.708 1.04883C47.4766 0.934576 47.1953 1.02979 47.0796 1.26124L45.417 4.63184L41.6978 5.17237C41.5952 5.18702 41.5015 5.23536 41.4297 5.3086C41.3429 5.39779 41.2951 5.51778 41.2967 5.64221C41.2984 5.76663 41.3494 5.88531 41.4385 5.97217L44.1294 8.59571L43.4936 12.3003C43.4787 12.3865 43.4883 12.4751 43.5212 12.5561C43.5541 12.6372 43.609 12.7074 43.6798 12.7588C43.7505 12.8102 43.8343 12.8407 43.9215 12.8469C44.0088 12.8531 44.096 12.8348 44.1733 12.794L47.5 11.0449L50.8267 12.794C50.9175 12.8423 51.0229 12.8584 51.124 12.8408C51.3789 12.7969 51.5503 12.5552 51.5063 12.3003L50.8706 8.59571L53.5615 5.97217C53.6348 5.9004 53.6831 5.80665 53.6978 5.70411C53.7373 5.44776 53.5586 5.21045 53.3022 5.17237Z" fill="#FFC700"/>
<path d="M73.3022 5.17237L69.583 4.63184L67.9204 1.26124C67.875 1.16895 67.8003 1.09424 67.708 1.04883C67.4766 0.934576 67.1953 1.02979 67.0796 1.26124L65.417 4.63184L61.6978 5.17237C61.5952 5.18702 61.5015 5.23536 61.4297 5.3086C61.3429 5.39779 61.2951 5.51778 61.2967 5.64221C61.2984 5.76663 61.3494 5.88531 61.4385 5.97217L64.1294 8.59571L63.4936 12.3003C63.4787 12.3865 63.4883 12.4751 63.5212 12.5561C63.5541 12.6372 63.609 12.7074 63.6798 12.7588C63.7505 12.8102 63.8343 12.8407 63.9215 12.8469C64.0088 12.8531 64.096 12.8348 64.1733 12.794L67.5 11.0449L70.8267 12.794C70.9175 12.8423 71.0229 12.8584 71.124 12.8408C71.3789 12.7969 71.5503 12.5552 71.5063 12.3003L70.8706 8.59571L73.5615 5.97217C73.6348 5.9004 73.6831 5.80665 73.6978 5.70411C73.7373 5.44776 73.5586 5.21045 73.3022 5.17237Z" fill="#FFC700"/>
<g clip-path="url(#clip0_59_1011)">
<path d="M84.3501 4.15919L86.1246 0.6435C86.1587 0.572775 86.212 0.51304 86.2783 0.471095C86.3447 0.429151 86.4215 0.406683 86.5 0.40625C86.6487 0.40625 86.7974 0.485063 86.8778 0.6435L88.6523 4.15919L92.6319 4.72469C92.7311 4.74028 92.8219 4.78961 92.889 4.86436C92.956 4.93911 92.9952 5.0347 93 5.135C93.0057 5.20178 92.9962 5.26897 92.9723 5.33157C92.9484 5.39418 92.9106 5.45058 92.8619 5.49656L89.9994 8.22331L90.6738 12.0664C90.7372 12.4264 90.3813 12.7083 90.0677 12.5474L86.5 10.7144L82.9339 12.5474C82.8966 12.5668 82.8567 12.5805 82.8153 12.5881C82.5374 12.6368 82.2726 12.3817 82.3278 12.0664L83.0022 8.22331L80.1406 5.49656C80.0961 5.45447 80.0607 5.40369 80.0367 5.34736C80.0126 5.29103 80.0004 5.23037 80.0008 5.16913C80.0009 5.08254 80.0248 4.99764 80.0699 4.92375C80.1019 4.87018 80.1455 4.82448 80.1976 4.79003C80.2496 4.75558 80.3087 4.73325 80.3705 4.72469L84.3501 4.15919ZM86.5 9.77194C86.5656 9.77167 86.6303 9.78728 86.6885 9.81744L89.6834 11.3563L89.1195 8.14125C89.1062 8.06731 89.1112 7.99123 89.1342 7.91969C89.1571 7.84815 89.1973 7.78334 89.2511 7.73094L91.6131 5.48031L88.3208 5.01231C88.2526 5.00202 88.188 4.97535 88.1324 4.9346C88.0768 4.89384 88.0319 4.84022 88.0015 4.77831L86.5008 1.80619L86.5 1.80863V9.77112V9.77194Z" fill="#FFC700"/>
</g>
<defs>
<clipPath id="clip0_59_1011">
<rect width="13" height="13" fill="white" transform="translate(80)"/>
</clipPath>
</defs>
</svg>
