<svg width="184" height="28" viewBox="0 0 184 28" fill="none" xmlns="http://www.w3.org/2000/svg">
<rect width="184" height="28" rx="3" fill="#4EAF60"/>
<path d="M46.0384 18V10.7273H48.9077C49.4593 10.7273 49.9292 10.8326 50.3175 11.0433C50.7057 11.2517 51.0017 11.5417 51.2053 11.9134C51.4112 12.2827 51.5142 12.7088 51.5142 13.1918C51.5142 13.6747 51.41 14.1009 51.2017 14.4702C50.9934 14.8395 50.6915 15.1271 50.2962 15.3331C49.9032 15.5391 49.4273 15.642 48.8686 15.642H47.0398V14.4098H48.62C48.916 14.4098 49.1598 14.3589 49.3516 14.2571C49.5457 14.1529 49.6901 14.0097 49.7848 13.8274C49.8819 13.6428 49.9304 13.4309 49.9304 13.1918C49.9304 12.9503 49.8819 12.7396 49.7848 12.5597C49.6901 12.3774 49.5457 12.2365 49.3516 12.1371C49.1574 12.0353 48.9112 11.9844 48.6129 11.9844H47.576V18H46.0384ZM52.513 18V10.7273H57.4135V11.995H54.0506V13.728H57.1614V14.9957H54.0506V16.7322H57.4277V18H52.513ZM62.5813 12.8189C62.5529 12.5324 62.431 12.3099 62.2156 12.1513C62.0001 11.9927 61.7077 11.9134 61.3384 11.9134C61.0875 11.9134 60.8756 11.9489 60.7028 12.0199C60.5299 12.0885 60.3974 12.1844 60.305 12.3075C60.2151 12.4306 60.1701 12.5703 60.1701 12.7266C60.1654 12.8568 60.1926 12.9704 60.2518 13.0675C60.3133 13.1645 60.3974 13.2486 60.5039 13.3196C60.6104 13.3883 60.7335 13.4486 60.8732 13.5007C61.0129 13.5504 61.1621 13.593 61.3207 13.6286L61.9741 13.7848C62.2913 13.8558 62.5825 13.9505 62.8477 14.0689C63.1128 14.1873 63.3424 14.3329 63.5366 14.5057C63.7307 14.6785 63.881 14.8821 63.9876 15.1165C64.0965 15.3509 64.1521 15.6196 64.1545 15.9226C64.1521 16.3677 64.0385 16.7536 63.8136 17.0803C63.591 17.4046 63.2691 17.6567 62.8477 17.8366C62.4286 18.0142 61.9232 18.103 61.3313 18.103C60.7442 18.103 60.2328 18.013 59.7972 17.8331C59.364 17.6532 59.0254 17.3868 58.7816 17.0341C58.5401 16.679 58.4135 16.2398 58.4016 15.7166H59.8896C59.9061 15.9605 59.976 16.1641 60.0991 16.3274C60.2246 16.4884 60.3915 16.6103 60.5998 16.6932C60.8105 16.7737 61.0484 16.8139 61.3136 16.8139C61.574 16.8139 61.8001 16.776 61.9918 16.7003C62.186 16.6245 62.3363 16.5192 62.4428 16.3842C62.5494 16.2493 62.6026 16.0942 62.6026 15.919C62.6026 15.7557 62.5541 15.6184 62.457 15.5071C62.3623 15.3958 62.2227 15.3011 62.038 15.223C61.8557 15.1449 61.632 15.0739 61.3668 15.0099L60.5749 14.8111C59.9618 14.6619 59.4776 14.4287 59.1225 14.1115C58.7674 13.7943 58.591 13.367 58.5934 12.8295C58.591 12.3892 58.7082 12.0045 58.945 11.6754C59.1841 11.3464 59.512 11.0895 59.9286 10.9048C60.3453 10.7202 60.8188 10.6278 61.3491 10.6278C61.8888 10.6278 62.36 10.7202 62.7624 10.9048C63.1673 11.0895 63.4821 11.3464 63.707 11.6754C63.9319 12.0045 64.0479 12.3857 64.055 12.8189H62.5813ZM66.2763 18H64.6286L67.1392 10.7273H69.1207L71.6278 18H69.9801L68.1584 12.3892H68.1016L66.2763 18ZM66.1733 15.1413H70.0653V16.3416H66.1733V15.1413ZM78.5863 10.7273V18H77.2582L74.0941 13.4226H74.0408V18H72.5032V10.7273H73.8526L76.9918 15.3011H77.0558V10.7273H78.5863ZM86.1165 12.8189C86.0881 12.5324 85.9661 12.3099 85.7507 12.1513C85.5353 11.9927 85.2429 11.9134 84.8736 11.9134C84.6226 11.9134 84.4107 11.9489 84.2379 12.0199C84.0651 12.0885 83.9325 12.1844 83.8402 12.3075C83.7502 12.4306 83.7053 12.5703 83.7053 12.7266C83.7005 12.8568 83.7277 12.9704 83.7869 13.0675C83.8485 13.1645 83.9325 13.2486 84.0391 13.3196C84.1456 13.3883 84.2687 13.4486 84.4084 13.5007C84.5481 13.5504 84.6972 13.593 84.8558 13.6286L85.5092 13.7848C85.8265 13.8558 86.1177 13.9505 86.3828 14.0689C86.648 14.1873 86.8776 14.3329 87.0717 14.5057C87.2659 14.6785 87.4162 14.8821 87.5227 15.1165C87.6316 15.3509 87.6873 15.6196 87.6896 15.9226C87.6873 16.3677 87.5736 16.7536 87.3487 17.0803C87.1262 17.4046 86.8042 17.6567 86.3828 17.8366C85.9638 18.0142 85.4583 18.103 84.8665 18.103C84.2794 18.103 83.768 18.013 83.3324 17.8331C82.8991 17.6532 82.5606 17.3868 82.3168 17.0341C82.0753 16.679 81.9486 16.2398 81.9368 15.7166H83.4247C83.4413 15.9605 83.5111 16.1641 83.6342 16.3274C83.7597 16.4884 83.9266 16.6103 84.1349 16.6932C84.3456 16.7737 84.5836 16.8139 84.8487 16.8139C85.1091 16.8139 85.3352 16.776 85.527 16.7003C85.7211 16.6245 85.8714 16.5192 85.978 16.3842C86.0845 16.2493 86.1378 16.0942 86.1378 15.919C86.1378 15.7557 86.0893 15.6184 85.9922 15.5071C85.8975 15.3958 85.7578 15.3011 85.5732 15.223C85.3909 15.1449 85.1671 15.0739 84.902 15.0099L84.1101 14.8111C83.4969 14.6619 83.0128 14.4287 82.6577 14.1115C82.3026 13.7943 82.1262 13.367 82.1286 12.8295C82.1262 12.3892 82.2434 12.0045 82.4801 11.6754C82.7192 11.3464 83.0471 11.0895 83.4638 10.9048C83.8804 10.7202 84.3539 10.6278 84.8842 10.6278C85.424 10.6278 85.8951 10.7202 86.2976 10.9048C86.7024 11.0895 87.0173 11.3464 87.2422 11.6754C87.4671 12.0045 87.5831 12.3857 87.5902 12.8189H86.1165ZM88.7239 18V10.7273H93.6245V11.995H90.2615V13.728H93.3723V14.9957H90.2615V16.7322H93.6387V18H88.7239ZM94.8469 18V10.7273H96.3846V13.9339H96.4805L99.0977 10.7273H100.941L98.2418 13.9837L100.973 18H99.1332L97.141 15.0099L96.3846 15.9332V18H94.8469ZM102.995 18H101.347L103.858 10.7273H105.839L108.347 18H106.699L104.877 12.3892H104.82L102.995 18ZM102.892 15.1413H106.784V16.3416H102.892V15.1413ZM109.222 18V10.7273H112.091C112.641 10.7273 113.109 10.8255 113.498 11.022C113.888 11.2161 114.185 11.492 114.389 11.8494C114.595 12.2045 114.698 12.6224 114.698 13.103C114.698 13.5859 114.594 14.0014 114.385 14.3494C114.177 14.6951 113.875 14.9602 113.48 15.1449C113.087 15.3295 112.611 15.4219 112.052 15.4219H110.131V14.1861H111.804C112.097 14.1861 112.341 14.1458 112.535 14.0653C112.729 13.9848 112.874 13.8641 112.968 13.7031C113.065 13.5421 113.114 13.3421 113.114 13.103C113.114 12.8615 113.065 12.6579 112.968 12.4922C112.874 12.3265 112.728 12.201 112.532 12.1158C112.337 12.0282 112.092 11.9844 111.797 11.9844H110.76V18H109.222ZM113.15 14.6903L114.957 18H113.26L111.491 14.6903H113.15ZM117.038 18H115.39L117.901 10.7273H119.882L122.39 18H120.742L118.92 12.3892H118.863L117.038 18ZM116.935 15.1413H120.827V16.3416H116.935V15.1413ZM129.348 10.7273V18H128.02L124.856 13.4226H124.803V18H123.265V10.7273H124.614L127.754 15.3011H127.817V10.7273H129.348ZM135.441 13.0781C135.391 12.9053 135.321 12.7526 135.231 12.62C135.141 12.4851 135.031 12.3714 134.901 12.2791C134.773 12.1844 134.626 12.1122 134.461 12.0625C134.297 12.0128 134.116 11.9879 133.917 11.9879C133.546 11.9879 133.219 12.0803 132.937 12.2649C132.658 12.4496 132.44 12.7183 132.284 13.071C132.128 13.4214 132.05 13.8499 132.05 14.3565C132.05 14.8632 132.126 15.294 132.28 15.6491C132.434 16.0043 132.652 16.2753 132.934 16.4624C133.215 16.647 133.548 16.7393 133.932 16.7393C134.28 16.7393 134.577 16.6778 134.823 16.5547C135.072 16.4292 135.261 16.2528 135.391 16.0256C135.524 15.7983 135.59 15.5296 135.59 15.2195L135.903 15.2656H134.028V14.108H137.071V15.0241C137.071 15.6634 136.936 16.2126 136.666 16.6719C136.396 17.1288 136.024 17.4815 135.551 17.7301C135.077 17.9763 134.535 18.0994 133.925 18.0994C133.243 18.0994 132.644 17.9491 132.128 17.6484C131.612 17.3454 131.209 16.9157 130.92 16.3594C130.634 15.8007 130.491 15.1378 130.491 14.3707C130.491 13.7812 130.576 13.2557 130.746 12.794C130.919 12.33 131.161 11.937 131.471 11.6151C131.781 11.2931 132.142 11.0481 132.554 10.88C132.966 10.7119 133.412 10.6278 133.893 10.6278C134.305 10.6278 134.688 10.6882 135.043 10.8089C135.398 10.9273 135.713 11.0954 135.988 11.3132C136.265 11.531 136.491 11.7902 136.666 12.0909C136.841 12.3892 136.954 12.7183 137.003 13.0781H135.441Z" fill="white"/>
<g clip-path="url(#clip0_259_3)">
<path fill-rule="evenodd" clip-rule="evenodd" d="M156.708 15.191C156.559 15.1165 155.828 14.7575 155.692 14.7075C155.556 14.658 155.457 14.6335 155.358 14.7825C155.259 14.9305 154.974 15.2655 154.887 15.3645C154.8 15.464 154.714 15.476 154.565 15.402C154.417 15.327 153.938 15.1705 153.371 14.6645C152.929 14.2705 152.631 13.784 152.544 13.635C152.458 13.4865 152.535 13.406 152.609 13.332C152.676 13.2655 152.757 13.1585 152.832 13.072C152.906 12.985 152.931 12.923 152.981 12.8235C153.031 12.7245 153.005 12.638 152.968 12.5635C152.931 12.489 152.634 11.7575 152.51 11.46C152.39 11.1705 152.267 11.21 152.176 11.205C152.089 11.201 151.99 11.2 151.891 11.2C151.792 11.2 151.631 11.237 151.495 11.386C151.358 11.5345 150.975 11.894 150.975 12.6255C150.975 13.3565 151.507 14.063 151.582 14.1625C151.656 14.2615 152.629 15.7625 154.12 16.406C154.475 16.559 154.751 16.6505 154.966 16.7185C155.322 16.832 155.647 16.816 155.903 16.7775C156.188 16.735 156.782 16.418 156.906 16.071C157.029 15.724 157.029 15.4265 156.992 15.3645C156.955 15.3025 156.856 15.2655 156.707 15.191H156.708ZM153.997 18.8925H153.995C153.109 18.8927 152.24 18.6547 151.478 18.2035L151.299 18.0965L149.428 18.5875L149.927 16.7635L149.809 16.5765C149.315 15.7887 149.053 14.8769 149.054 13.9465C149.055 11.2215 151.272 9.00452 153.998 9.00452C155.318 9.00452 156.56 9.51952 157.493 10.4535C157.953 10.9118 158.317 11.4568 158.566 12.057C158.814 12.6571 158.941 13.3006 158.939 13.95C158.938 16.675 156.72 18.8925 153.997 18.8925V18.8925ZM158.203 9.74402C157.652 9.18948 156.996 8.74979 156.274 8.45042C155.552 8.15105 154.778 7.99796 153.996 8.00002C150.719 8.00002 148.051 10.6675 148.05 13.946C148.048 14.9894 148.322 16.0147 148.844 16.9185L148 20L151.152 19.173C152.024 19.6481 153.001 19.897 153.994 19.897H153.997C157.273 19.897 159.942 17.2295 159.943 13.9505C159.945 13.1692 159.792 12.3951 159.494 11.673C159.195 10.951 158.756 10.2954 158.203 9.74402" fill="white"/>
</g>
<defs>
<clipPath id="clip0_259_3">
<rect width="12" height="12" fill="white" transform="translate(148 8)"/>
</clipPath>
</defs>
</svg>
