<svg width="190" height="240" viewBox="0 0 190 240" fill="none" xmlns="http://www.w3.org/2000/svg">
<g opacity="0.05" clip-path="url(#clip0_187_48)">
<path fill-rule="evenodd" clip-rule="evenodd" d="M61.5 173.584L76.875 158.209V180.041L59.1937 197.569L46.125 192.188V153.75H23.0625L15.375 146.062V23.0625L23.0625 15.375H207.562L215.25 23.0625V92.25H199.875V30.75H30.75V138.375H53.8125L61.5 146.062V173.584ZM158.209 199.875L186.806 228.319L199.875 222.938V199.875H222.938L230.625 192.188V115.312L222.938 107.625H99.9375L92.25 115.312V192.188L99.9375 199.875H158.209ZM161.438 184.5H107.625V123H215.25V184.5H192.188L184.5 192.188V204.334L166.819 186.806L161.438 184.5Z" fill="black"/>
</g>
<defs>
<clipPath id="clip0_187_48">
<rect width="190" height="240" fill="white"/>
</clipPath>
</defs>
</svg>
