<svg width="31" height="32" viewBox="0 0 31 32" fill="none" xmlns="http://www.w3.org/2000/svg">
<path d="M7.27983 27.152C5.65406 25.4738 4.5469 23.3356 4.09836 21.0078C3.64982 18.68 3.88004 16.2672 4.75991 14.0745C5.63978 11.8818 7.12979 10.0077 9.04151 8.68913C10.9532 7.37055 13.2008 6.66677 15.5 6.66677C17.7992 6.66677 20.0468 7.37055 21.9585 8.68913C23.8702 10.0077 25.3602 11.8818 26.2401 14.0745C27.12 16.2672 27.3502 18.68 26.9016 21.0078C26.4531 23.3356 25.3459 25.4738 23.7202 27.152L25.5466 29.0373C26.8679 27.6769 27.9158 26.0604 28.63 24.2807C29.3442 22.501 29.7107 20.5931 29.7083 18.6667C29.7083 10.5667 23.3469 4 15.5 4C7.65312 4 1.29166 10.5667 1.29166 18.6667C1.29166 22.7173 2.88171 26.384 5.45341 29.0373L7.27983 27.152Z" fill="white"/>
<path d="M21.8937 25.2666C23.1582 23.9613 24.0192 22.2983 24.368 20.4878C24.7168 18.6773 24.5377 16.8008 23.8533 15.0954C23.169 13.39 22.0101 11.9324 20.5232 10.9069C19.0363 9.88135 17.2882 9.33398 15.5 9.33398C13.7118 9.33398 11.9637 9.88135 10.4768 10.9069C8.98994 11.9324 7.83105 13.39 7.14668 15.0954C6.46231 16.8008 6.2832 18.6773 6.632 20.4878C6.9808 22.2983 7.84184 23.9613 9.10625 25.2666L10.934 23.3813C10.0307 22.449 9.41562 21.2611 9.16642 19.9679C8.91721 18.6747 9.0451 17.3342 9.53391 16.116C10.0227 14.8978 10.8505 13.8566 11.9126 13.1241C12.9746 12.3916 14.2233 12.0006 15.5006 12.0006C16.778 12.0006 18.0266 12.3916 19.0887 13.1241C20.1508 13.8566 20.9786 14.8978 21.4674 16.116C21.9562 17.3342 22.0841 18.6747 21.8349 19.9679C21.5857 21.2611 20.9706 22.449 20.0673 23.3813L21.8937 25.2666Z" fill="white"/>
<path d="M18.2396 21.4947C18.7815 20.9353 19.1505 20.2225 19.2999 19.4466C19.4494 18.6707 19.3726 17.8665 19.0793 17.1356C18.786 16.4047 18.2893 15.7801 17.6521 15.3406C17.0149 14.9011 16.2657 14.6665 15.4994 14.6665C14.733 14.6665 13.9838 14.9011 13.3466 15.3406C12.7094 15.7801 12.2127 16.4047 11.9194 17.1356C11.6261 17.8665 11.5493 18.6707 11.6988 19.4466C11.8482 20.2225 12.2172 20.9353 12.7591 21.4947L14.5868 19.6094C14.4061 19.4229 14.2831 19.1853 14.2332 18.9267C14.1833 18.668 14.2089 18.3999 14.3066 18.1563C14.4044 17.9126 14.5699 17.7043 14.7823 17.5578C14.9948 17.4113 15.2445 17.3331 15.5 17.3331C15.7555 17.3331 16.0052 17.4113 16.2177 17.5578C16.4301 17.7043 16.5956 17.9126 16.6934 18.1563C16.7911 18.3999 16.8167 18.668 16.7668 18.9267C16.7169 19.1853 16.5939 19.4229 16.4132 19.6094L18.2396 21.4947Z" fill="white"/>
</svg>
