<svg width="226" height="299" viewBox="0 0 226 299" fill="none" xmlns="http://www.w3.org/2000/svg">
<g opacity="0.05" clip-path="url(#clip0_187_50)">
<path d="M180.774 22.5791H-0.129511C-12.5666 22.5791 -22.6294 32.7396 -22.6294 45.158L-22.7425 248.369L22.4834 203.211H180.774C193.211 203.211 203.387 193.05 203.387 180.632V45.158C203.387 32.7396 193.211 22.5791 180.774 22.5791ZM180.774 180.632H13.0991L6.42824 187.293L-0.129511 193.84V45.158H180.774V180.632ZM73.3626 158.053H158.161V135.474H95.9755L73.3626 158.053ZM117.006 91.7836C119.267 89.5257 119.267 86.0259 117.006 83.768L96.9931 63.7857C94.7318 61.5278 91.2268 61.5278 88.9655 63.7857L22.4834 130.168V158.053H50.4104L117.006 91.7836Z" fill="black"/>
</g>
<defs>
<clipPath id="clip0_187_50">
<rect width="226" height="299" fill="white"/>
</clipPath>
</defs>
</svg>
