<svg width="121" height="31" viewBox="0 0 121 31" fill="none" xmlns="http://www.w3.org/2000/svg">
<path d="M0.201705 30V0.90909H7.23295V24.2898H19.3352V30H0.201705ZM49.2997 15.4545C49.2997 18.6553 48.6842 21.3684 47.4531 23.5938C46.2221 25.8191 44.5554 27.5095 42.4531 28.6648C40.3603 29.8201 38.0118 30.3977 35.4077 30.3977C32.794 30.3977 30.4408 29.8153 28.348 28.6506C26.2552 27.4858 24.5933 25.7955 23.3622 23.5795C22.1406 21.3542 21.5298 18.6458 21.5298 15.4545C21.5298 12.2538 22.1406 9.54072 23.3622 7.31534C24.5933 5.08996 26.2552 3.39962 28.348 2.24432C30.4408 1.08901 32.794 0.511363 35.4077 0.511363C38.0118 0.511363 40.3603 1.08901 42.4531 2.24432C44.5554 3.39962 46.2221 5.08996 47.4531 7.31534C48.6842 9.54072 49.2997 12.2538 49.2997 15.4545ZM42.1122 15.4545C42.1122 13.5606 41.8423 11.9602 41.3026 10.6534C40.7723 9.34659 40.0052 8.35701 39.0014 7.68466C38.0071 7.01231 36.8092 6.67614 35.4077 6.67614C34.0156 6.67614 32.8177 7.01231 31.8139 7.68466C30.8101 8.35701 30.0384 9.34659 29.4986 10.6534C28.9683 11.9602 28.7031 13.5606 28.7031 15.4545C28.7031 17.3485 28.9683 18.9489 29.4986 20.2557C30.0384 21.5625 30.8101 22.5521 31.8139 23.2244C32.8177 23.8968 34.0156 24.233 35.4077 24.233C36.8092 24.233 38.0071 23.8968 39.0014 23.2244C40.0052 22.5521 40.7723 21.5625 41.3026 20.2557C41.8423 18.9489 42.1122 17.3485 42.1122 15.4545ZM72.4957 10.4119C72.3348 9.81534 72.098 9.28977 71.7855 8.83523C71.473 8.37121 71.0895 7.97822 70.6349 7.65625C70.1804 7.33428 69.6596 7.0928 69.0724 6.93182C68.4853 6.76136 67.8414 6.67614 67.1406 6.67614C65.7296 6.67614 64.508 7.01704 63.4759 7.69886C62.4531 8.38068 61.6624 9.375 61.1037 10.6818C60.545 11.9792 60.2656 13.5559 60.2656 15.4119C60.2656 17.2775 60.5355 18.8684 61.0753 20.1847C61.6151 21.5009 62.3963 22.5047 63.419 23.196C64.4418 23.8873 65.6823 24.233 67.1406 24.233C68.4285 24.233 69.5175 24.0246 70.4077 23.608C71.3073 23.1818 71.9891 22.5805 72.4531 21.804C72.9171 21.0275 73.1491 20.1136 73.1491 19.0625L74.456 19.2188H67.3821V14.0909H79.9247V17.9403C79.9247 20.5445 79.3707 22.7746 78.2628 24.6307C77.1643 26.4867 75.6491 27.9119 73.7173 28.9062C71.795 29.9006 69.5838 30.3977 67.0838 30.3977C64.3092 30.3977 61.8707 29.7964 59.7685 28.5938C57.6662 27.3911 56.0279 25.6771 54.8537 23.4517C53.6795 21.2169 53.0923 18.5653 53.0923 15.4972C53.0923 13.1108 53.4474 10.9943 54.1577 9.14773C54.8679 7.29167 55.8575 5.7197 57.1264 4.43182C58.4048 3.14394 59.8821 2.16856 61.5582 1.50568C63.2438 0.842802 65.0573 0.511363 66.9986 0.511363C68.6842 0.511363 70.2514 0.75284 71.7003 1.2358C73.1586 1.71875 74.4465 2.40057 75.5639 3.28125C76.6908 4.16193 77.6046 5.20833 78.3054 6.42045C79.0062 7.63258 79.4418 8.96307 79.6122 10.4119H72.4957ZM91.1001 0.90909V30H84.0689V0.90909H91.1001ZM120.273 0.90909V30H114.307L102.73 13.2102H102.545V30H95.5142V0.90909H101.565L113.014 17.6705H113.256V0.90909H120.273Z" fill="#19A333" fill-opacity="0.5"/>
</svg>
