<svg width="116" height="31" viewBox="0 0 116 31" fill="none" xmlns="http://www.w3.org/2000/svg">
<path d="M0.201705 0.90909H8.90909L16.2955 18.9205H16.6364L24.0227 0.90909H32.7301V30H25.8835V12.1307H25.642L18.6534 29.8153H14.2784L7.28977 12.0312H7.0483V30H0.201705V0.90909ZM37.1158 30V0.90909H57.3999V6.61932H44.147V12.5852H56.3629V18.3097H44.147V24.2898H57.3999V30H37.1158ZM86.5618 0.90909V30H80.5959L69.0192 13.2102H68.8345V30H61.8033V0.90909H67.8544L79.3033 17.6705H79.5447V0.90909H86.5618ZM108.582 0.90909H115.599V19.6733C115.599 21.8419 115.083 23.7311 114.051 25.3409C113.019 26.9413 111.58 28.1818 109.733 29.0625C107.886 29.9337 105.741 30.3693 103.298 30.3693C100.827 30.3693 98.6676 29.9337 96.821 29.0625C94.9744 28.1818 93.5398 26.9413 92.517 25.3409C91.4943 23.7311 90.983 21.8419 90.983 19.6733V0.90909H98.0142V19.0625C98.0142 20.0663 98.232 20.9612 98.6676 21.7472C99.1127 22.5331 99.733 23.1487 100.528 23.5938C101.324 24.0388 102.247 24.2614 103.298 24.2614C104.349 24.2614 105.268 24.0388 106.054 23.5938C106.849 23.1487 107.47 22.5331 107.915 21.7472C108.36 20.9612 108.582 20.0663 108.582 19.0625V0.90909Z" fill="#19A333" fill-opacity="0.5"/>
</svg>
