<svg width="229" height="25" viewBox="0 0 229 25" fill="none" xmlns="http://www.w3.org/2000/svg">
<path d="M20.5682 0.727272V24H15.7955L6.53409 10.5682H6.38636V24H0.761364V0.727272H5.60227L14.7614 14.1364H14.9545V0.727272H20.5682ZM46.071 12.3636C46.071 14.9242 45.5786 17.0947 44.5938 18.875C43.6089 20.6553 42.2756 22.0076 40.5938 22.9318C38.9195 23.8561 37.0407 24.3182 34.9574 24.3182C32.8665 24.3182 30.9839 23.8523 29.3097 22.9205C27.6354 21.9886 26.3059 20.6364 25.321 18.8636C24.3438 17.0833 23.8551 14.9167 23.8551 12.3636C23.8551 9.80303 24.3438 7.63258 25.321 5.85227C26.3059 4.07197 27.6354 2.7197 29.3097 1.79545C30.9839 0.871211 32.8665 0.40909 34.9574 0.40909C37.0407 0.40909 38.9195 0.871211 40.5938 1.79545C42.2756 2.7197 43.6089 4.07197 44.5938 5.85227C45.5786 7.63258 46.071 9.80303 46.071 12.3636ZM40.321 12.3636C40.321 10.8485 40.1051 9.56818 39.6733 8.52273C39.2491 7.47727 38.6354 6.6856 37.8324 6.14773C37.0369 5.60985 36.0786 5.34091 34.9574 5.34091C33.8438 5.34091 32.8854 5.60985 32.0824 6.14773C31.2794 6.6856 30.6619 7.47727 30.2301 8.52273C29.8059 9.56818 29.5938 10.8485 29.5938 12.3636C29.5938 13.8788 29.8059 15.1591 30.2301 16.2045C30.6619 17.25 31.2794 18.0417 32.0824 18.5795C32.8854 19.1174 33.8438 19.3864 34.9574 19.3864C36.0786 19.3864 37.0369 19.1174 37.8324 18.5795C38.6354 18.0417 39.2491 17.25 39.6733 16.2045C40.1051 15.1591 40.321 13.8788 40.321 12.3636ZM47.5312 5.29545V0.727272H67.2017V5.29545H60.1449V24H54.5994V5.29545H47.5312ZM75.5739 0.727272V24H69.9489V0.727272H75.5739ZM79.1051 24V0.727272H94.9915V5.29545H84.7301V10.0682H93.9801V14.6477H84.7301V24H79.1051ZM103.449 0.727272V24H97.8239V0.727272H103.449ZM128.105 9.15909H122.423C122.348 8.57576 122.192 8.04924 121.957 7.57954C121.723 7.10985 121.412 6.70833 121.026 6.375C120.639 6.04167 120.181 5.78788 119.651 5.61364C119.128 5.43182 118.548 5.34091 117.912 5.34091C116.783 5.34091 115.81 5.61742 114.991 6.17045C114.181 6.72348 113.556 7.52273 113.116 8.56818C112.685 9.61364 112.469 10.8788 112.469 12.3636C112.469 13.9091 112.688 15.2045 113.128 16.25C113.575 17.2879 114.2 18.072 115.003 18.6023C115.813 19.125 116.772 19.3864 117.878 19.3864C118.499 19.3864 119.063 19.3068 119.571 19.1477C120.086 18.9886 120.537 18.7576 120.923 18.4545C121.317 18.1439 121.639 17.7689 121.889 17.3295C122.147 16.8826 122.325 16.3788 122.423 15.8182L128.105 15.8523C128.007 16.8826 127.707 17.8977 127.207 18.8977C126.715 19.8977 126.037 20.8106 125.173 21.6364C124.31 22.4545 123.257 23.1061 122.014 23.5909C120.779 24.0758 119.363 24.3182 117.764 24.3182C115.658 24.3182 113.772 23.8561 112.105 22.9318C110.446 22 109.135 20.6439 108.173 18.8636C107.211 17.0833 106.73 14.9167 106.73 12.3636C106.73 9.80303 107.219 7.63258 108.196 5.85227C109.173 4.07197 110.495 2.7197 112.162 1.79545C113.829 0.871211 115.696 0.40909 117.764 0.40909C119.173 0.40909 120.476 0.60606 121.673 1C122.87 1.38636 123.923 1.95454 124.832 2.70454C125.741 3.44697 126.48 4.35985 127.048 5.44318C127.616 6.52652 127.969 7.76515 128.105 9.15909ZM135.764 24H129.719L137.571 0.727272H145.06L152.912 24H146.866L141.401 6.59091H141.219L135.764 24ZM134.957 14.8409H147.594V19.1136H134.957V14.8409ZM151.75 5.29545V0.727272H171.42V5.29545H164.364V24H158.818V5.29545H151.75ZM179.793 0.727272V24H174.168V0.727272H179.793ZM205.29 12.3636C205.29 14.9242 204.797 17.0947 203.812 18.875C202.828 20.6553 201.494 22.0076 199.812 22.9318C198.138 23.8561 196.259 24.3182 194.176 24.3182C192.085 24.3182 190.203 23.8523 188.528 22.9205C186.854 21.9886 185.525 20.6364 184.54 18.8636C183.562 17.0833 183.074 14.9167 183.074 12.3636C183.074 9.80303 183.562 7.63258 184.54 5.85227C185.525 4.07197 186.854 2.7197 188.528 1.79545C190.203 0.871211 192.085 0.40909 194.176 0.40909C196.259 0.40909 198.138 0.871211 199.812 1.79545C201.494 2.7197 202.828 4.07197 203.812 5.85227C204.797 7.63258 205.29 9.80303 205.29 12.3636ZM199.54 12.3636C199.54 10.8485 199.324 9.56818 198.892 8.52273C198.468 7.47727 197.854 6.6856 197.051 6.14773C196.256 5.60985 195.297 5.34091 194.176 5.34091C193.063 5.34091 192.104 5.60985 191.301 6.14773C190.498 6.6856 189.881 7.47727 189.449 8.52273C189.025 9.56818 188.812 10.8485 188.812 12.3636C188.812 13.8788 189.025 15.1591 189.449 16.2045C189.881 17.25 190.498 18.0417 191.301 18.5795C192.104 19.1174 193.063 19.3864 194.176 19.3864C195.297 19.3864 196.256 19.1174 197.051 18.5795C197.854 18.0417 198.468 17.25 198.892 16.2045C199.324 15.1591 199.54 13.8788 199.54 12.3636ZM228.381 0.727272V24H223.608L214.347 10.5682H214.199V24H208.574V0.727272H213.415L222.574 14.1364H222.767V0.727272H228.381Z" fill="#19A333" fill-opacity="0.5"/>
</svg>
