<svg width="112" height="25" viewBox="0 0 112 25" fill="none" xmlns="http://www.w3.org/2000/svg">
<path d="M0.761364 24.5V1.22727H10.375C12.1174 1.22727 13.6212 1.56818 14.8864 2.25C16.1591 2.92424 17.1402 3.86742 17.8295 5.07954C18.5189 6.28409 18.8636 7.68561 18.8636 9.28409C18.8636 10.8902 18.5114 12.2955 17.8068 13.5C17.1098 14.697 16.1136 15.625 14.8182 16.2841C13.5227 16.9432 11.9848 17.2727 10.2045 17.2727H4.27273V12.8409H9.15909C10.0076 12.8409 10.7159 12.6932 11.2841 12.3977C11.8598 12.1023 12.2955 11.6894 12.5909 11.1591C12.8864 10.6212 13.0341 9.99621 13.0341 9.28409C13.0341 8.56439 12.8864 7.94318 12.5909 7.42045C12.2955 6.89015 11.8598 6.48106 11.2841 6.19318C10.7083 5.9053 10 5.76136 9.15909 5.76136H6.38636V24.5H0.761364ZM21.6364 24.5V1.22727H31.25C32.9924 1.22727 34.4962 1.54167 35.7614 2.17045C37.0341 2.79167 38.0152 3.68561 38.7045 4.85227C39.3939 6.01136 39.7386 7.38636 39.7386 8.97727C39.7386 10.5909 39.3864 11.9621 38.6818 13.0909C37.9773 14.2121 36.9773 15.0682 35.6818 15.6591C34.3864 16.2424 32.8523 16.5341 31.0795 16.5341H25V12.1023H30.0341C30.8826 12.1023 31.5909 11.9924 32.1591 11.7727C32.7348 11.5455 33.1705 11.2045 33.4659 10.75C33.7614 10.2879 33.9091 9.69697 33.9091 8.97727C33.9091 8.25757 33.7614 7.66288 33.4659 7.19318C33.1705 6.71591 32.7348 6.35985 32.1591 6.125C31.5833 5.88258 30.875 5.76136 30.0341 5.76136H27.2614V24.5H21.6364ZM34.7386 13.8636L40.5341 24.5H34.3977L28.7159 13.8636H34.7386ZM64.7898 12.8636C64.7898 15.4242 64.2973 17.5947 63.3125 19.375C62.3277 21.1553 60.9943 22.5076 59.3125 23.4318C57.6383 24.3561 55.7595 24.8182 53.6761 24.8182C51.5852 24.8182 49.7027 24.3523 48.0284 23.4205C46.3542 22.4886 45.0246 21.1364 44.0398 19.3636C43.0625 17.5833 42.5739 15.4167 42.5739 12.8636C42.5739 10.303 43.0625 8.13258 44.0398 6.35227C45.0246 4.57197 46.3542 3.2197 48.0284 2.29545C49.7027 1.37121 51.5852 0.90909 53.6761 0.90909C55.7595 0.90909 57.6383 1.37121 59.3125 2.29545C60.9943 3.2197 62.3277 4.57197 63.3125 6.35227C64.2973 8.13258 64.7898 10.303 64.7898 12.8636ZM59.0398 12.8636C59.0398 11.3485 58.8239 10.0682 58.392 9.02273C57.9678 7.97727 57.3542 7.1856 56.5511 6.64773C55.7557 6.10985 54.7973 5.84091 53.6761 5.84091C52.5625 5.84091 51.6042 6.10985 50.8011 6.64773C49.9981 7.1856 49.3807 7.97727 48.9489 9.02273C48.5246 10.0682 48.3125 11.3485 48.3125 12.8636C48.3125 14.3788 48.5246 15.6591 48.9489 16.7045C49.3807 17.75 49.9981 18.5417 50.8011 19.0795C51.6042 19.6174 52.5625 19.8864 53.6761 19.8864C54.7973 19.8864 55.7557 19.6174 56.5511 19.0795C57.3542 18.5417 57.9678 17.75 58.392 16.7045C58.8239 15.6591 59.0398 14.3788 59.0398 12.8636ZM68.0739 24.5V1.22727H83.9602V5.79545H73.6989V10.5682H82.9489V15.1477H73.6989V24.5H68.0739ZM92.4176 1.22727V24.5H86.7926V1.22727H92.4176ZM95.9489 24.5V1.22727H101.574V19.9318H111.256V24.5H95.9489Z" fill="#19A333" fill-opacity="0.5"/>
</svg>
