<svg width="148" height="24" viewBox="0 0 148 24" fill="none" xmlns="http://www.w3.org/2000/svg">
<path d="M0.761364 24V0.727272H10.375C12.1174 0.727272 13.6212 1.04167 14.8864 1.67045C16.1591 2.29167 17.1402 3.18561 17.8295 4.35227C18.5189 5.51136 18.8636 6.88636 18.8636 8.47727C18.8636 10.0909 18.5114 11.4621 17.8068 12.5909C17.1023 13.7121 16.1023 14.5682 14.8068 15.1591C13.5114 15.7424 11.9773 16.0341 10.2045 16.0341H4.125V11.6023H9.15909C10.0076 11.6023 10.7159 11.4924 11.2841 11.2727C11.8598 11.0455 12.2955 10.7045 12.5909 10.25C12.8864 9.78788 13.0341 9.19697 13.0341 8.47727C13.0341 7.75757 12.8864 7.16288 12.5909 6.69318C12.2955 6.21591 11.8598 5.85985 11.2841 5.625C10.7083 5.38258 10 5.26136 9.15909 5.26136H6.38636V24H0.761364ZM13.8636 13.3636L19.6591 24H13.5227L7.84091 13.3636H13.8636ZM27.5739 0.727272V24H21.9489V0.727272H27.5739ZM36.6847 24L29.9119 0.727272H36.1278L39.6392 15.9773H39.8324L43.8438 0.727272H48.9119L52.9233 16.0114H53.1165L56.6392 0.727272H62.8438L56.0824 24H50.6619L46.4688 9.88636H46.2869L42.0938 24H36.6847ZM67.6705 24H61.625L69.4773 0.727272H76.9659L84.8182 24H78.7727L73.3068 6.59091H73.125L67.6705 24ZM66.8636 14.8409H79.5V19.1136H66.8636V14.8409ZM83.7898 0.727272H90.0739L94.9943 10.4659H95.1989L100.119 0.727272H106.403L97.892 16.2273V24H92.3011V16.2273L83.7898 0.727272ZM111.42 24H105.375L113.227 0.727272H120.716L128.568 24H122.523L117.057 6.59091H116.875L111.42 24ZM110.614 14.8409H123.25V19.1136H110.614V14.8409ZM127.406 5.29545V0.727272H147.077V5.29545H140.02V24H134.474V5.29545H127.406Z" fill="#19A333" fill-opacity="0.5"/>
</svg>
