<svg width="112" height="6" viewBox="0 0 112 6" fill="none" xmlns="http://www.w3.org/2000/svg">
<path fill-rule="evenodd" clip-rule="evenodd" d="M0 0V5.31477H3.29545V0H0ZM10.4844 0L12.6705 5.31477H15.8523L18.0383 0H14.584L14.4318 0.371588H14.0909L13.9388 0H10.4844ZM28.5227 0H25.2273V5.31477H28.5227V0ZM107.068 0H111.253C111.121 0.27675 110.975 0.547393 110.817 0.811929C109.889 2.36496 108.577 3.59128 106.882 4.49091C105.187 5.38106 103.198 5.82613 100.916 5.82613C98.634 5.82613 96.6454 5.38106 94.9503 4.49091C93.2552 3.59128 91.9389 2.36496 91.0014 0.811929C90.8443 0.547393 90.7005 0.27675 90.57 0H94.7704C95.3072 0.635806 95.9638 1.16687 96.7401 1.59318C97.9048 2.21818 99.2969 2.53068 100.916 2.53068C102.536 2.53068 103.928 2.21818 105.092 1.59318C105.875 1.16687 106.534 0.635806 107.068 0ZM35.5859 0H39.1087V2.18977H53.37V5.31477H35.5859V0ZM59.4922 0H63.0149V5.31477H59.4922V0ZM75.4627 0H82.5604V5.31477H79.1513L75.4627 0Z" fill="#19A333" fill-opacity="0.5"/>
</svg>
