<svg width="116" height="6" viewBox="0 0 116 6" fill="none" xmlns="http://www.w3.org/2000/svg">
<path fill-rule="evenodd" clip-rule="evenodd" d="M0 0V5.31477H17.0455V2.18977H3.52273V0H0ZM22.6048 0C23.6234 1.62584 24.9059 2.92394 26.4524 3.89432C28.3842 5.10644 30.5907 5.7125 33.0717 5.7125C35.5528 5.7125 37.7592 5.10644 39.6911 3.89432C41.2376 2.92394 42.5201 1.62584 43.5386 0H39.2283C38.8031 0.411589 38.3418 0.772194 37.8445 1.08182C36.424 1.97197 34.8331 2.41704 33.0717 2.41704C31.3104 2.41704 29.7147 1.97197 28.2848 1.08182C27.7907 0.772194 27.3316 0.411589 26.9074 0H22.6048ZM53.0213 0C54.0292 1.62584 55.3102 2.92394 56.8643 3.89432C58.8151 5.10644 61.0784 5.7125 63.6541 5.7125C65.9647 5.7125 68.0102 5.22954 69.7905 4.26363C71.5803 3.28825 72.9818 1.91515 73.995 0.144315C74.0227 0.0964383 74.05 0.0483333 74.0769 0H69.8126C69.3035 0.529038 68.7185 0.979605 68.0575 1.3517C66.7886 2.06193 65.3208 2.41704 63.6541 2.41704C61.8549 2.41704 60.2356 1.97197 58.7962 1.08182C58.2955 0.772194 57.8309 0.411589 57.4024 0H53.0213ZM81.5625 0V5.31477H85.0852V0H81.5625ZM92.1484 0V5.31477H95.6712V0H92.1484ZM108.119 0L111.808 5.31477H115.217V0H108.119Z" fill="#19A333" fill-opacity="0.5"/>
</svg>
