<svg width="107" height="7" viewBox="0 0 107 7" fill="none" xmlns="http://www.w3.org/2000/svg">
<path fill-rule="evenodd" clip-rule="evenodd" d="M0 0.5L0 6.67556H2.81818V0.5H0ZM20.3125 0.5V6.67556H23.1307V0.5H20.3125ZM30.3922 0.5L33.7216 6.67556H36.9943L33.6112 0.5H30.3922ZM40.8028 0.5C40.924 0.80984 41.0569 1.11079 41.2017 1.40284C42.0881 3.19072 43.304 4.5695 44.8494 5.5392C46.3949 6.5089 48.16 6.99375 50.1449 6.99375C52.1297 6.99375 53.8949 6.5089 55.4403 5.5392C56.9858 4.5695 58.2017 3.19072 59.0881 1.40284C59.2329 1.11079 59.3658 0.80984 59.487 0.5H56.4972C55.851 1.71008 55.0062 2.63981 53.9631 3.2892C52.8267 4.00132 51.554 4.35738 50.1449 4.35738C48.7358 4.35738 47.4593 4.00132 46.3153 3.2892C45.2791 2.63981 44.435 1.71008 43.783 0.5H40.8028ZM65.1562 0.5V6.67556H67.9744V0.5H65.1562ZM83.9375 0.5V6.67556H86.7557V0.5H83.9375ZM92.4062 0.5V6.67556H106.043V4.17556H95.2244V0.5H92.4062Z" fill="#19A333" fill-opacity="0.5"/>
</svg>
