<svg width="218" height="24" viewBox="0 0 218 24" fill="none" xmlns="http://www.w3.org/2000/svg">
<path fill-rule="evenodd" clip-rule="evenodd" d="M0.181816 0H0V23.2727H2.81818V17.2726H0.181816V0ZM11.563 17.2726L15.7273 23.2727H18.4545V17.2726H15.6818V18.3182H15.4545L14.7281 17.2726H11.563ZM24.1856 17.2726C24.2874 17.5209 24.3969 17.7634 24.5142 18C25.4006 19.7879 26.6165 21.1667 28.1619 22.1364C29.7074 23.1061 31.4725 23.5909 33.4574 23.5909C35.4422 23.5909 37.2074 23.1061 38.7528 22.1364C40.2983 21.1667 41.5142 19.7879 42.4006 18C42.5179 17.7634 42.6274 17.5209 42.7292 17.2726H39.7135C39.0804 18.3975 38.2677 19.2687 37.2756 19.8864C36.1392 20.5985 34.8665 20.9545 33.4574 20.9545C32.0483 20.9545 30.7718 20.5985 29.6278 19.8864C28.6422 19.2687 27.8305 18.3975 27.1925 17.2726H24.1856ZM53.5455 17.2726V23.2727H56.3636V17.2726H53.5455ZM68.0312 17.2726V23.2727H70.8494V17.2726H68.0312ZM76.5 17.2726V23.2727H79.3182V17.2726H76.5ZM95.2812 17.2726V23.2727H98.0994V17.2726H95.2812ZM103.842 17.2726C103.944 17.5209 104.053 17.7634 104.17 18C105.057 19.7879 106.273 21.1667 107.818 22.1364C109.364 23.1061 111.129 23.5909 113.114 23.5909C114.288 23.5909 115.39 23.4205 116.42 23.0795C117.458 22.7386 118.394 22.2424 119.227 21.5909C120.061 20.9318 120.758 20.1326 121.318 19.1932C121.671 18.6024 121.954 17.9623 122.169 17.2726H119.258C119.123 17.5778 118.966 17.8657 118.784 18.1364C118.375 18.75 117.875 19.2689 117.284 19.6932C116.701 20.1098 116.053 20.4242 115.341 20.6364C114.629 20.8485 113.886 20.9545 113.114 20.9545C111.705 20.9545 110.428 20.5985 109.284 19.8864C108.298 19.2687 107.487 18.3975 106.849 17.2726H103.842ZM127.234 17.2726L125.031 23.2727H127.986L130.116 17.2726H127.234ZM139.947 17.2726L142.077 23.2727H145.031L142.828 17.2726H139.947ZM151.983 17.2726V23.2727H154.801V17.2726H151.983ZM166.469 17.2726V23.2727H169.287V17.2726H166.469ZM175.029 17.2726C175.131 17.5209 175.241 17.7634 175.358 18C176.244 19.7879 177.46 21.1667 179.006 22.1364C180.551 23.1061 182.316 23.5909 184.301 23.5909C186.286 23.5909 188.051 23.1061 189.597 22.1364C191.142 21.1667 192.358 19.7879 193.244 18C193.362 17.7634 193.471 17.5209 193.573 17.2726H190.557C189.924 18.3975 189.111 19.2687 188.119 19.8864C186.983 20.5985 185.71 20.9545 184.301 20.9545C182.892 20.9545 181.616 20.5985 180.472 19.8864C179.486 19.2687 178.674 18.3975 178.036 17.2726H175.029ZM199.312 17.2726V23.2727H202.131V17.2726H199.312ZM210.876 17.2726L215.04 23.2727H217.767V17.2726H214.994V18.3182H214.767L214.041 17.2726H210.876Z" fill="#19A333" fill-opacity="0.5"/>
</svg>
