<svg width="125" height="7" viewBox="0 0 125 7" fill="none" xmlns="http://www.w3.org/2000/svg">
<path fill-rule="evenodd" clip-rule="evenodd" d="M0.99234 0.272461L0.99234 6.44802H3.81052V0.272461H0.99234ZM11.072 0.272461L14.4014 6.44802H17.6742L14.291 0.272461H11.072ZM21.4611 0.272461V6.44802H24.2793V0.272461H21.4611ZM32.4685 0.272461L34.1571 6.44802H37.0662L38.7766 0.272461H36.2335L35.748 2.12984H35.5207L35.0442 0.272461H32.4685ZM48.3534 0.272461H45.8104L47.5208 6.44802H50.4298L52.1185 0.272461H49.5428L49.0662 2.12984H48.8389L48.3534 0.272461ZM58.7599 0.272461L56.4923 6.44802H59.4469L61.6391 0.272461H58.7599ZM71.3455 0.272461L73.5378 6.44802H76.4923L74.2247 0.272461H71.3455ZM84.1514 0.272461V6.44802H86.9696V0.272461H84.1514ZM96.9162 0.272461L94.6486 6.44802H97.6031L99.7954 0.272461H96.9162ZM109.502 0.272461L111.694 6.44802H114.649L112.381 0.272461H109.502ZM121.6 0.272461V6.44802H124.418V0.272461H121.6Z" fill="#19A333" fill-opacity="0.5"/>
</svg>
