<svg width="251" height="35" viewBox="0 0 251 35" fill="none" xmlns="http://www.w3.org/2000/svg">
<path d="M0.5 6.94318V0.0909081H30.0057V6.94318H19.4205V35H11.1023V6.94318H0.5ZM37.3182 35H28.25L40.0284 0.0909081H51.2614L63.0398 35H53.9716L45.7727 8.88636H45.5L37.3182 35ZM36.108 21.2614H55.0625V27.6705H36.108V21.2614ZM66.7983 0.0909081H77.2472L86.1108 21.7045H86.5199L95.3835 0.0909081H105.832V35H97.6165V13.5568H97.3267L88.9403 34.7784H83.6903L75.304 13.4375H75.0142V35H66.7983V0.0909081ZM111.095 35V0.0909081H125.516C128.129 0.0909081 130.385 0.602272 132.283 1.625C134.192 2.63636 135.663 4.05113 136.697 5.86932C137.732 7.67614 138.249 9.77841 138.249 12.1761C138.249 14.5852 137.72 16.6932 136.663 18.5C135.618 20.2955 134.124 21.6875 132.18 22.6761C130.237 23.6648 127.93 24.1591 125.26 24.1591H116.362V17.5114H123.692C124.964 17.5114 126.027 17.2898 126.879 16.8466C127.743 16.4034 128.396 15.7841 128.839 14.9886C129.283 14.1818 129.504 13.2443 129.504 12.1761C129.504 11.0966 129.283 10.1648 128.839 9.38068C128.396 8.58523 127.743 7.97159 126.879 7.53977C126.016 7.10795 124.953 6.89205 123.692 6.89205H119.533V35H111.095ZM150.845 0.0909081V35H142.408V0.0909081H150.845ZM156.142 35V0.0909081H164.58V28.1477H179.102V35H156.142ZM191.49 35H182.422L194.2 0.0909081H205.433L217.212 35H208.143L199.945 8.88636H199.672L191.49 35ZM190.28 21.2614H209.234V27.6705H190.28V21.2614ZM250.68 0.0909081V35H243.521L229.629 14.8523H229.408V35H220.97V0.0909081H228.232L241.97 20.2045H242.26V0.0909081L250.68 0.0909081Z" fill="#19A333" fill-opacity="0.5"/>
</svg>
