<svg width="175" height="37" viewBox="0 0 175 37" fill="none" xmlns="http://www.w3.org/2000/svg">
<path d="M0.5 7.94318V1.09091H30.0057V7.94318H19.4205V36H11.1023V7.94318H0.5ZM65.4815 18.5455C65.4815 22.3864 64.7429 25.642 63.2656 28.3125C61.7884 30.983 59.7884 33.0114 57.2656 34.3977C54.7543 35.7841 51.9361 36.4773 48.8111 36.4773C45.6747 36.4773 42.8509 35.7784 40.3395 34.3807C37.8281 32.983 35.8338 30.9545 34.3565 28.2955C32.8906 25.625 32.1577 22.375 32.1577 18.5455C32.1577 14.7045 32.8906 11.4489 34.3565 8.77841C35.8338 6.10795 37.8281 4.07955 40.3395 2.69318C42.8509 1.30682 45.6747 0.613635 48.8111 0.613635C51.9361 0.613635 54.7543 1.30682 57.2656 2.69318C59.7884 4.07955 61.7884 6.10795 63.2656 8.77841C64.7429 11.4489 65.4815 14.7045 65.4815 18.5455ZM56.8565 18.5455C56.8565 16.2727 56.5327 14.3523 55.8849 12.7841C55.2486 11.2159 54.3281 10.0284 53.1236 9.22159C51.9304 8.41477 50.4929 8.01136 48.8111 8.01136C47.1406 8.01136 45.7031 8.41477 44.4986 9.22159C43.294 10.0284 42.3679 11.2159 41.7202 12.7841C41.0838 14.3523 40.7656 16.2727 40.7656 18.5455C40.7656 20.8182 41.0838 22.7386 41.7202 24.3068C42.3679 25.875 43.294 27.0625 44.4986 27.8693C45.7031 28.6761 47.1406 29.0795 48.8111 29.0795C50.4929 29.0795 51.9304 28.6761 53.1236 27.8693C54.3281 27.0625 55.2486 25.875 55.8849 24.3068C56.5327 22.7386 56.8565 20.8182 56.8565 18.5455ZM70.4077 36V1.09091L84.8281 1.09091C87.4418 1.09091 89.6974 1.60227 91.5952 2.625C93.5043 3.63636 94.9759 5.05113 96.0099 6.86932C97.044 8.67614 97.5611 10.7784 97.5611 13.1761C97.5611 15.5852 97.0327 17.6932 95.9759 19.5C94.9304 21.2955 93.4361 22.6875 91.4929 23.6761C89.5497 24.6648 87.2429 25.1591 84.5724 25.1591H75.6747V18.5114H83.0043C84.277 18.5114 85.3395 18.2898 86.1918 17.8466C87.0554 17.4034 87.7088 16.7841 88.152 15.9886C88.5952 15.1818 88.8168 14.2443 88.8168 13.1761C88.8168 12.0966 88.5952 11.1648 88.152 10.3807C87.7088 9.58523 87.0554 8.97159 86.1918 8.53977C85.3281 8.10795 84.2656 7.89205 83.0043 7.89205H78.8452V36H70.4077ZM133.152 1.09091H141.572V23.608C141.572 26.2102 140.953 28.4773 139.714 30.4091C138.476 32.3295 136.749 33.8182 134.533 34.875C132.317 35.9205 129.743 36.4432 126.811 36.4432C123.845 36.4432 121.254 35.9205 119.038 34.875C116.822 33.8182 115.101 32.3295 113.874 30.4091C112.646 28.4773 112.033 26.2102 112.033 23.608V1.09091H120.47V22.875C120.47 24.0795 120.732 25.1534 121.254 26.0966C121.788 27.0398 122.533 27.7784 123.487 28.3125C124.442 28.8466 125.55 29.1136 126.811 29.1136C128.072 29.1136 129.175 28.8466 130.118 28.3125C131.072 27.7784 131.817 27.0398 132.351 26.0966C132.885 25.1534 133.152 24.0795 133.152 22.875V1.09091ZM146.861 36V1.09091H161.281C163.895 1.09091 166.151 1.60227 168.048 2.625C169.957 3.63636 171.429 5.05113 172.463 6.86932C173.497 8.67614 174.014 10.7784 174.014 13.1761C174.014 15.5852 173.486 17.6932 172.429 19.5C171.384 21.2955 169.889 22.6875 167.946 23.6761C166.003 24.6648 163.696 25.1591 161.026 25.1591H152.128V18.5114H159.457C160.73 18.5114 161.793 18.2898 162.645 17.8466C163.509 17.4034 164.162 16.7841 164.605 15.9886C165.048 15.1818 165.27 14.2443 165.27 13.1761C165.27 12.0966 165.048 11.1648 164.605 10.3807C164.162 9.58523 163.509 8.97159 162.645 8.53977C161.781 8.10795 160.719 7.89205 159.457 7.89205H155.298V36H146.861Z" fill="#19A333" fill-opacity="0.5"/>
</svg>
