<svg width="360" height="250" viewBox="0 0 360 250" fill="none" xmlns="http://www.w3.org/2000/svg">
<path fill-rule="evenodd" clip-rule="evenodd" d="M352 0.485147C352 4.68265 337.449 8.08541 319.5 8.08541C301.551 8.08541 287 4.68265 287 0.485147C287 0.322182 287.022 0.160416 287.065 0H72.9349C72.9781 0.160416 73 0.322182 73 0.485147C73 4.68265 58.4493 8.08541 40.5 8.08541C22.5507 8.08541 8 4.68265 8 0.485147C8 0.322182 8.02193 0.160416 8.06514 0H0V78.9133V87.3221V250H360V87.3221V78.9133V0H351.935C351.978 0.160416 352 0.322182 352 0.485147Z" fill="#009A03" fill-opacity="0.8"/>
</svg>
