<svg width="172" height="286" viewBox="0 0 172 286" fill="none" xmlns="http://www.w3.org/2000/svg">
<path opacity="0.07" d="M147.429 0.13L24.5714 0C11.0571 0 0 11.7 0 26V260C0 274.3 11.0571 286 24.5714 286H147.429C160.943 286 172 274.3 172 260V26C172 11.7 160.943 0.13 147.429 0.13ZM147.429 260H24.5714V247H147.429V260ZM147.429 221H24.5714V65H147.429V221ZM147.429 39H24.5714V26H147.429V39ZM135.143 117.65L117.82 99.32L74.3286 145.34L57.0057 127.01L39.6828 145.34L74.3286 182L135.143 117.65Z" fill="black"/>
</svg>
