<svg width="20" height="16" viewBox="0 0 20 16" fill="none" xmlns="http://www.w3.org/2000/svg">
<path d="M9 13H11V12H12C12.2833 12 12.521 11.904 12.713 11.712C12.9043 11.5207 13 11.2833 13 11V8C13 7.71667 12.9043 7.479 12.713 7.287C12.521 7.09567 12.2833 7 12 7H9V6H13V4H11V3H9V4H8C7.71667 4 7.47933 4.09567 7.288 4.287C7.096 4.479 7 4.71667 7 5V8C7 8.28333 7.096 8.52067 7.288 8.712C7.47933 8.904 7.71667 9 8 9H11V10H7V12H9V13ZM2 16C1.45 16 0.979333 15.8043 0.588 15.413C0.196 15.021 0 14.55 0 14V2C0 1.45 0.196 0.979333 0.588 0.588C0.979333 0.196 1.45 0 2 0H18C18.55 0 19.021 0.196 19.413 0.588C19.8043 0.979333 20 1.45 20 2V14C20 14.55 19.8043 15.021 19.413 15.413C19.021 15.8043 18.55 16 18 16H2Z" fill="#006402"/>
</svg>
