<svg width="21" height="17" viewBox="0 0 21 17" fill="none" xmlns="http://www.w3.org/2000/svg">
<path d="M17.5547 16.7665C17.8631 17.0778 18.3619 17.0778 18.6408 16.7665L20.7408 14.6408C20.918 14.4913 21 14.2883 21 14.077C21 13.8654 20.918 13.6615 20.7408 13.5419L18.6408 11.4158C18.3619 11.077 17.8631 11.077 17.5547 11.4158C17.2495 11.6982 17.2495 12.2031 17.5547 12.5154L18.3127 13.3093H12.6C12.1636 13.3093 11.8125 13.6382 11.8125 14.077C11.8125 14.5172 12.1636 14.8743 12.6 14.8743L18.3127 14.9039L17.5547 15.639C17.2495 15.9503 17.2495 16.4552 17.5547 16.7665ZM3.41578 4.50621L2.68866 3.71226L8.37047 3.74216C8.83641 3.74216 9.15797 3.35682 9.15797 2.9449C9.15797 2.4765 8.83641 2.14763 8.37047 2.14763L2.68898 2.11773L3.41578 1.35369C3.75047 1.04143 3.75047 0.536493 3.41578 0.254128C3.13687 -0.0847092 2.63812 -0.0847092 2.33067 0.254128L0.230639 2.38017C0.08295 2.49976 -3.28028e-05 2.70239 9.72717e-09 2.9449C9.72717e-09 3.1276 0.0829828 3.33024 0.230672 3.47973L2.33067 5.60577C2.63812 5.91471 3.13687 5.91471 3.41578 5.60577C3.75047 5.2935 3.75047 4.78857 3.41578 4.50621ZM3.12047 14.874H11.0873C10.9627 14.6355 10.8937 14.3644 10.8937 14.1066C10.8937 13.1233 11.6583 12.3792 12.6 12.3792H15.7861C15.8944 11.768 16.2389 11.2697 16.7147 10.9574C16.7705 10.8777 16.8361 10.8013 16.905 10.7282C17.5711 10.0538 18.6539 10.0538 19.32 10.7282L19.95 11.3693V4.24377C19.95 3.07113 19.0083 2.11773 17.85 2.11773H9.91266C10.0373 2.35691 10.0767 2.62599 10.0767 2.9449C10.0767 3.86839 9.34172 4.6723 8.37047 4.6723L5.21391 4.6424C5.10234 5.22374 4.76109 5.72203 4.28531 6.0343C4.22953 6.11402 4.16391 6.19043 4.095 6.26351C3.42891 6.93786 2.34741 6.93786 1.68098 6.26351L1.02047 5.62238V12.7479C1.02047 13.9222 1.99008 14.874 3.12047 14.874ZM3.12047 10.6219C4.30828 10.6219 5.22047 11.5753 5.22047 12.7479H3.12047V10.6219ZM17.85 4.24377V6.36981C16.6917 6.36981 15.75 5.41642 15.75 4.24377H17.85ZM10.4705 5.30679C12.2391 5.30679 13.65 6.73522 13.65 8.49585C13.65 10.2864 12.2391 11.6849 10.4705 11.6849C8.73141 11.6849 7.32047 10.2864 7.32047 8.49585C7.32047 6.73522 8.73141 5.30679 10.4705 5.30679Z" fill="#006402"/>
</svg>
