<svg width="22" height="15" viewBox="0 0 22 15" fill="none" xmlns="http://www.w3.org/2000/svg">
<path d="M20.9 0H1.1C0.492594 0 0 0.479799 0 1.07143V13.9286C0 14.5202 0.492594 15 1.1 15H20.9C21.5074 15 22 14.5202 22 13.9286V1.07143C22 0.479799 21.5074 0 20.9 0ZM6.05 9.9067V10.4464C6.05 10.5944 5.92694 10.7143 5.775 10.7143H5.225C5.07306 10.7143 4.95 10.5944 4.95 10.4464V9.901C4.56191 9.88158 4.18447 9.74966 3.87166 9.52098C3.73759 9.42288 3.73072 9.22734 3.85206 9.11451L4.25597 8.73917C4.35119 8.65078 4.49281 8.64676 4.60419 8.71473C4.73722 8.79576 4.88812 8.83929 5.04488 8.83929H6.01116C6.23459 8.83929 6.41678 8.64107 6.41678 8.39766C6.41678 8.19844 6.29269 8.02299 6.11531 7.97143L4.56844 7.51942C3.92941 7.33259 3.48288 6.73527 3.48288 6.06663C3.48288 5.24565 4.13772 4.57868 4.94966 4.55759V4.01786C4.94966 3.86987 5.07272 3.75 5.22466 3.75H5.77466C5.92659 3.75 6.04966 3.86987 6.04966 4.01786V4.56328C6.43775 4.5827 6.81519 4.71429 7.128 4.9433C7.26206 5.04141 7.26894 5.23694 7.14759 5.34978L6.74369 5.72511C6.64847 5.8135 6.50684 5.81752 6.39547 5.74955C6.26244 5.66819 6.11153 5.625 5.95478 5.625H4.9885C4.76506 5.625 4.58288 5.82321 4.58288 6.06663C4.58288 6.26585 4.70697 6.44129 4.88434 6.49286L6.43122 6.94487C7.07025 7.1317 7.51678 7.72902 7.51678 8.39766C7.51678 9.21897 6.86194 9.8856 6.05 9.9067ZM14.3 9.375C14.3 9.52299 14.1769 9.64286 14.025 9.64286H10.175C10.0231 9.64286 9.9 9.52299 9.9 9.375V8.83929C9.9 8.69129 10.0231 8.57143 10.175 8.57143H14.025C14.1769 8.57143 14.3 8.69129 14.3 8.83929V9.375ZM19.8 9.375C19.8 9.52299 19.6769 9.64286 19.525 9.64286H16.775C16.6231 9.64286 16.5 9.52299 16.5 9.375V8.83929C16.5 8.69129 16.6231 8.57143 16.775 8.57143H19.525C19.6769 8.57143 19.8 8.69129 19.8 8.83929V9.375ZM19.8 6.16071C19.8 6.30871 19.6769 6.42857 19.525 6.42857H10.175C10.0231 6.42857 9.9 6.30871 9.9 6.16071V5.625C9.9 5.47701 10.0231 5.35714 10.175 5.35714H19.525C19.6769 5.35714 19.8 5.47701 19.8 5.625V6.16071Z" fill="#006402"/>
</svg>
